<?xml version="1.0" ?>
<!-- Uploaded to: SVG Repo, www.svgrepo.com, Generator: SVG Repo Mixer Tools -->
<svg fill="#000000" width="800px" height="800px" viewBox="0 0 32 32" xmlns="http://www.w3.org/2000/svg">
<title/>
<g data-name="Layer 2" id="Layer_2">
<path d="M30,18H24V9A8,8,0,0,0,8,9v9H2a1,1,0,0,0,0,2V30a1,1,0,0,0,1,1h8a1,1,0,0,0,1-1V25h8v5a1,1,0,0,0,1,1h8a1,1,0,0,0,1-1V20a1,1,0,0,0,0-2ZM10,9A6,6,0,0,1,22,9v9H10ZM4,20h6v3.5H4Zm6,9H4V25.5h6Zm2-9h8v3H12Zm16,9H22V25.5h6Zm0-5.5H22V20h6Z"/>
<path d="M17,20.5H15a1,1,0,0,0,0,2h2a1,1,0,0,0,0-2Z"/>
</g>
</svg>